<svg width="26" height="18" viewBox="0 0 26 18" fill="none" xmlns="http://www.w3.org/2000/svg">
<path d="M6.21543 11.9057C2.84647 11.9057 0 9.17961 0 5.95283C0 2.72613 2.84647 0 6.21543 0C7.88787 0 8.83885 0.54748 9.94012 1.18152C11.3524 1.99458 12.9534 2.91619 16.7151 3.12328C16.8793 3.13242 17.0079 3.26848 17.0079 3.43332V8.4725C17.0079 8.63733 16.8793 8.77339 16.7151 8.78254C12.9534 8.98962 11.3528 9.91131 9.94044 10.7243C8.83916 11.3583 7.88787 11.9057 6.21543 11.9057ZM6.21543 0.62095C3.18231 0.62095 0.619773 3.06265 0.619773 5.95291C0.619773 8.84316 3.18231 11.2849 6.21543 11.2849C7.72278 11.2849 8.56506 10.7998 9.63165 10.186C10.9955 9.40081 12.6847 8.42851 16.388 8.18035V3.72562C12.6844 3.47754 10.9955 2.50516 9.63165 1.72001C8.56506 1.10592 7.72247 0.62095 6.21543 0.62095Z" fill="#082040"/>
<path d="M5.91681 8.6335C4.44217 8.6335 3.24219 7.43085 3.24219 5.95278C3.24219 4.4747 4.44217 3.27222 5.91681 3.27222C7.39176 3.27222 8.59174 4.4747 8.59174 5.95278C8.59174 7.43085 7.39168 8.6335 5.91681 8.6335ZM5.91681 3.89317C4.78368 3.89317 3.86196 4.81706 3.86196 5.95278C3.86196 7.08849 4.78368 8.01263 5.91681 8.01263C7.04994 8.01263 7.97197 7.08857 7.97197 5.95278C7.97197 4.81698 7.04994 3.89317 5.91681 3.89317Z" fill="#082040"/>
<path d="M8.55704 18.0001H6.29447C5.8648 18.0001 5.44819 17.6659 5.34602 17.2386L3.92856 11.3191C3.90182 11.2084 3.93824 11.0918 4.02279 11.0156C4.10734 10.9394 4.22649 10.9162 4.33409 10.9543C4.94615 11.1739 5.57961 11.2851 6.21677 11.2851C6.68404 11.2851 7.10773 11.2381 7.51184 11.1414C7.67717 11.1007 7.84509 11.2042 7.88489 11.3709L9.25507 17.0937C9.31084 17.327 9.26475 17.5601 9.12813 17.7334C8.99497 17.9029 8.7867 18.0001 8.55704 18.0001ZM4.65766 11.704L5.94817 17.0937C5.98404 17.2432 6.14905 17.3791 6.29447 17.3791H8.55704C8.57985 17.3791 8.62106 17.3752 8.64183 17.349C8.66007 17.3259 8.66401 17.2857 8.65292 17.2385L7.35273 11.8089C6.52414 11.9595 5.56168 11.9413 4.65766 11.704Z" fill="#082040"/>
<path d="M8.48011 15.487C8.47893 15.4876 8.47664 15.4873 8.47444 15.487H6.68764C6.54449 15.487 6.41983 15.3887 6.38656 15.2491L5.91874 13.2953C5.89656 13.2029 5.91788 13.1053 5.97655 13.0306C6.03546 12.956 6.12513 12.9124 6.21982 12.9124H8.00662C8.14977 12.9124 8.27443 13.0107 8.3077 13.1503L8.76215 15.0476C8.78008 15.0869 8.78999 15.1306 8.78999 15.1766C8.78999 15.3481 8.65141 15.487 8.48011 15.487ZM6.93177 14.8663H8.08142L7.76241 13.5333H6.61276L6.93177 14.8663Z" fill="#082040"/>
<path d="M23.554 8.65946C23.0646 8.65946 22.7015 8.50172 22.3645 8.35557C21.8369 8.12673 21.3811 7.92854 20.3956 8.36369C20.2382 8.43259 20.0559 8.36109 19.9873 8.20453C19.9184 8.04766 19.9893 7.86445 20.1458 7.79524C21.38 7.25123 22.0339 7.53526 22.6107 7.78586C23.1371 8.014 23.5916 8.21155 24.57 7.79382C24.7282 7.72776 24.9094 7.79981 24.9764 7.95787C25.0435 8.11561 24.9704 8.29795 24.813 8.36519C24.307 8.58095 23.8992 8.65946 23.554 8.65946ZM23.554 6.54018C23.0646 6.54033 22.7015 6.38259 22.3645 6.23644C21.8369 6.00728 21.3813 5.80918 20.3956 6.24456C20.2382 6.31338 20.0559 6.24196 19.9873 6.0854C19.9184 5.92853 19.9893 5.74533 20.1458 5.67611C21.38 5.13234 22.0339 5.41613 22.6107 5.66657C23.1371 5.89503 23.5916 6.09258 24.57 5.67469C24.7288 5.60737 24.9094 5.68108 24.9764 5.83874C25.0435 5.99648 24.9704 6.17882 24.813 6.24606C24.307 6.46182 23.8992 6.54018 23.554 6.54018ZM23.554 4.42097C23.0646 4.42097 22.7015 4.26339 22.3645 4.11708C21.8369 3.88792 21.3811 3.69013 20.3956 4.1252C20.2382 4.1948 20.0559 4.12275 19.9873 3.96619C19.9184 3.80932 19.9893 3.62604 20.1458 3.55706C21.38 3.01274 22.0335 3.29716 22.6109 3.54737C23.137 3.77613 23.5915 3.97305 24.5699 3.55549C24.7287 3.48832 24.9094 3.56171 24.9763 3.71945C25.0435 3.87719 24.9703 4.05961 24.8129 4.12677C24.307 4.34269 23.8992 4.42097 23.554 4.42097Z" fill="#082040"/>
<path d="M16.6986 8.78303C16.6195 8.78303 16.5432 8.75276 16.4857 8.69805C16.4237 8.6394 16.3887 8.55789 16.3887 8.47259V3.43333C16.3887 3.34804 16.4237 3.26653 16.4857 3.20788C16.5472 3.14923 16.6306 3.11848 16.7157 3.12329C17.2217 3.15112 17.7537 3.16523 18.297 3.16523C18.4681 3.16523 18.6069 3.30429 18.6069 3.47567V8.42994C18.6069 8.6014 18.468 8.74038 18.297 8.74038C17.7555 8.74038 17.2233 8.75449 16.7157 8.78247C16.71 8.78287 16.7043 8.78303 16.6986 8.78303ZM17.0084 3.75922V8.14647C17.328 8.13283 17.6553 8.1244 17.987 8.12108V3.78453C17.6547 3.78145 17.3275 3.77294 17.0084 3.75922Z" fill="#082040"/>
</svg>
