<svg width="28" height="20" viewBox="0 0 28 20" fill="none" xmlns="http://www.w3.org/2000/svg">
<path d="M26.9688 16.6594H26.3031V2.25C26.3019 1.65283 26.0638 1.08055 25.6411 0.658725C25.2184 0.236902 24.6456 -1.29055e-06 24.0484 0H3.63906C3.04189 -1.29055e-06 2.46911 0.236902 2.04641 0.658725C1.62371 1.08055 1.38562 1.65283 1.38438 2.25V16.6594H0.71875C0.59443 16.6594 0.475201 16.7088 0.387294 16.7967C0.299386 16.8846 0.25 17.0038 0.25 17.1281C0.251239 17.7891 0.51437 18.4227 0.981771 18.8901C1.44917 19.3575 2.08275 19.6206 2.74375 19.6219H24.9438C25.6048 19.6206 26.2383 19.3575 26.7057 18.8901C27.1731 18.4227 27.4363 17.7891 27.4375 17.1281C27.4375 17.0038 27.3881 16.8846 27.3002 16.7967C27.2123 16.7088 27.0931 16.6594 26.9688 16.6594ZM2.32188 2.25C2.32312 1.90147 2.46244 1.56764 2.70932 1.32164C2.95621 1.07563 3.29053 0.937498 3.63906 0.9375H24.0484C24.397 0.937498 24.7313 1.07563 24.9782 1.32164C25.2251 1.56764 25.3644 1.90147 25.3656 2.25V16.6594H2.32188V2.25ZM24.9438 18.6844H2.74375C2.41294 18.6833 2.09096 18.5775 1.824 18.3822C1.55705 18.1868 1.35884 17.9119 1.25781 17.5969H26.4297C26.3287 17.9119 26.1305 18.1868 25.8635 18.3822C25.5965 18.5775 25.2746 18.6833 24.9438 18.6844Z" fill="#082040"/>
</svg>
