<svg width="30" height="30" viewBox="0 0 30 30" fill="none" xmlns="http://www.w3.org/2000/svg">
<path d="M23.125 24.875C23.4011 24.875 23.625 24.6511 23.625 24.375C23.625 24.0989 23.4011 23.875 23.125 23.875V24.875ZM6.875 23.875C6.59886 23.875 6.375 24.0989 6.375 24.375C6.375 24.6511 6.59886 24.875 6.875 24.875V23.875ZM15 25.9375V26.4375H15.0007L15 25.9375ZM15.9375 26.875L15.4375 26.8743V26.875H15.9375ZM23.125 23.875H6.875V24.875H23.125V23.875ZM15 25.4375C14.7157 25.4375 14.4378 25.5218 14.2014 25.6798L14.7569 26.5112C14.8289 26.4632 14.9135 26.4375 15 26.4375V25.4375ZM14.2014 25.6798C13.965 25.8377 13.7807 26.0622 13.6719 26.3249L14.5958 26.7076C14.6289 26.6276 14.685 26.5593 14.7569 26.5112L14.2014 25.6798ZM13.6719 26.3249C13.5631 26.5876 13.5347 26.8766 13.5901 27.1554L14.5709 26.9604C14.554 26.8755 14.5627 26.7875 14.5958 26.7076L13.6719 26.3249ZM13.5901 27.1554C13.6456 27.4343 13.7825 27.6904 13.9835 27.8915L14.6906 27.1844C14.6295 27.1232 14.5878 27.0452 14.5709 26.9604L13.5901 27.1554ZM13.9835 27.8915C14.1846 28.0925 14.4407 28.2294 14.7196 28.2849L14.9146 27.3041C14.8298 27.2872 14.7518 27.2455 14.6906 27.1844L13.9835 27.8915ZM14.7196 28.2849C14.9984 28.3403 15.2874 28.3119 15.5501 28.2031L15.1674 27.2792C15.0875 27.3123 14.9995 27.321 14.9146 27.3041L14.7196 28.2849ZM15.5501 28.2031C15.8128 28.0943 16.0373 27.91 16.1952 27.6736L15.3638 27.1181C15.3157 27.19 15.2474 27.2461 15.1674 27.2792L15.5501 28.2031ZM16.1952 27.6736C16.3532 27.4372 16.4375 27.1593 16.4375 26.875H15.4375C15.4375 26.9615 15.4118 27.0461 15.3638 27.1181L16.1952 27.6736ZM16.4375 26.8757C16.4378 26.6867 16.4007 26.4996 16.3285 26.325L15.4044 26.7071C15.4263 26.7601 15.4376 26.8169 15.4375 26.8743L16.4375 26.8757ZM16.3285 26.325C16.2564 26.1504 16.1504 25.9918 16.0168 25.8582L15.3097 26.5653C15.3503 26.6059 15.3825 26.654 15.4044 26.7071L16.3285 26.325ZM16.0168 25.8582C15.8832 25.7246 15.7246 25.6186 15.55 25.5465L15.1679 26.4706C15.221 26.4925 15.2691 26.5247 15.3097 26.5653L16.0168 25.8582ZM15.55 25.5465C15.3754 25.4743 15.1883 25.4373 14.9993 25.4375L15.0007 26.4375C15.0581 26.4374 15.1149 26.4487 15.1679 26.4706L15.55 25.5465ZM9.375 1.125H20.625V0.125H9.375V1.125ZM20.625 1.125C21.7296 1.125 22.625 2.02043 22.625 3.125H23.625C23.625 1.46815 22.2819 0.125 20.625 0.125V1.125ZM22.625 3.125V26.875H23.625V3.125H22.625ZM22.625 26.875C22.625 27.9796 21.7296 28.875 20.625 28.875V29.875C22.2819 29.875 23.625 28.5319 23.625 26.875H22.625ZM20.625 28.875H9.375V29.875H20.625V28.875ZM9.375 28.875C8.27043 28.875 7.375 27.9796 7.375 26.875H6.375C6.375 28.5319 7.71815 29.875 9.375 29.875V28.875ZM7.375 26.875V3.125H6.375V26.875H7.375ZM7.375 3.125C7.375 2.02043 8.27043 1.125 9.375 1.125V0.125C7.71815 0.125 6.375 1.46815 6.375 3.125H7.375Z" fill="#082040"/>
</svg>
