<svg width="30" height="30" viewBox="0 0 30 30" fill="none" xmlns="http://www.w3.org/2000/svg">
<path d="M14.375 10C15.8668 10 17.2976 10.5926 18.3525 11.6475C19.4074 12.7024 20 14.1332 20 15.625C20 17.1168 19.4074 18.5476 18.3525 19.6025C17.2976 20.6574 15.8668 21.25 14.375 21.25C12.8832 21.25 11.4524 20.6574 10.3975 19.6025C9.34263 18.5476 8.75 17.1168 8.75 15.625C8.75 14.1332 9.34263 12.7024 10.3975 11.6475C11.4524 10.5926 12.8832 10 14.375 10ZM14.375 11.25C13.2147 11.25 12.1019 11.7109 11.2814 12.5314C10.4609 13.3519 10 14.4647 10 15.625C10 16.7853 10.4609 17.8981 11.2814 18.7186C12.1019 19.5391 13.2147 20 14.375 20C15.5353 20 16.6481 19.5391 17.4686 18.7186C18.2891 17.8981 18.75 16.7853 18.75 15.625C18.75 14.4647 18.2891 13.3519 17.4686 12.5314C16.6481 11.7109 15.5353 11.25 14.375 11.25ZM6.25 6.25H8.75L11.25 3.75H17.5L20 6.25H22.5C23.4946 6.25 24.4484 6.64509 25.1517 7.34835C25.8549 8.05161 26.25 9.00544 26.25 10V21.25C26.25 22.2446 25.8549 23.1984 25.1517 23.9017C24.4484 24.6049 23.4946 25 22.5 25H6.25C5.25544 25 4.30161 24.6049 3.59835 23.9017C2.89509 23.1984 2.5 22.2446 2.5 21.25V10C2.5 9.00544 2.89509 8.05161 3.59835 7.34835C4.30161 6.64509 5.25544 6.25 6.25 6.25ZM11.7675 5L9.2675 7.5H6.25C5.58696 7.5 4.95107 7.76339 4.48223 8.23223C4.01339 8.70107 3.75 9.33696 3.75 10V21.25C3.75 21.913 4.01339 22.5489 4.48223 23.0178C4.95107 23.4866 5.58696 23.75 6.25 23.75H22.5C23.163 23.75 23.7989 23.4866 24.2678 23.0178C24.7366 22.5489 25 21.913 25 21.25V10C25 9.33696 24.7366 8.70107 24.2678 8.23223C23.7989 7.76339 23.163 7.5 22.5 7.5H19.4825L16.9825 5H11.7675Z" fill="#082040"/>
<circle cx="20.625" cy="9.375" r="0.625" fill="#082040"/>
</svg>
