<svg width="24" height="26" viewBox="0 0 24 26" fill="none" xmlns="http://www.w3.org/2000/svg">
<path d="M19.5 4.2625L19.5125 4.24875M23.25 3V23C23.25 23.663 22.9866 24.2989 22.5178 24.7678C22.0489 25.2366 21.413 25.5 20.75 25.5H3.25C2.58696 25.5 1.95107 25.2366 1.48223 24.7678C1.01339 24.2989 0.75 23.663 0.75 23V3C0.75 2.33696 1.01339 1.70107 1.48223 1.23223C1.95107 0.763392 2.58696 0.5 3.25 0.5H20.75C21.413 0.5 22.0489 0.763392 22.5178 1.23223C22.9866 1.70107 23.25 2.33696 23.25 3Z" stroke="#082040" stroke-linecap="round" stroke-linejoin="round"/>
<path d="M12 21.75C13.9891 21.75 15.8968 20.9598 17.3033 19.5533C18.7098 18.1468 19.5 16.2391 19.5 14.25C19.5 12.2609 18.7098 10.3532 17.3033 8.9467C15.8968 7.54018 13.9891 6.75 12 6.75C10.0109 6.75 8.10322 7.54018 6.6967 8.9467C5.29018 10.3532 4.5 12.2609 4.5 14.25C4.5 16.2391 5.29018 18.1468 6.6967 19.5533C8.10322 20.9598 10.0109 21.75 12 21.75V21.75Z" stroke="#082040" stroke-linecap="round" stroke-linejoin="round"/>
<path d="M12 18C11.0054 18 10.0516 17.6049 9.34835 16.9017C8.64509 16.1984 8.25 15.2446 8.25 14.25" stroke="#082040" stroke-linecap="round" stroke-linejoin="round"/>
</svg>
