<svg width="30" height="30" viewBox="0 0 30 30" fill="none" xmlns="http://www.w3.org/2000/svg">
<g clip-path="url(#clip0_509_185)">
<path d="M26.8746 5H24.1662V6.66667H26.6662V25H3.3329V6.66667H5.8329V5H3.12456C2.92976 5.00326 2.73751 5.04486 2.55879 5.12242C2.38006 5.19999 2.21837 5.31201 2.08295 5.45208C1.94752 5.59214 1.84102 5.75752 1.76952 5.93875C1.69802 6.11999 1.66292 6.31353 1.66623 6.50833V25.1583C1.66292 25.3531 1.69802 25.5467 1.76952 25.7279C1.84102 25.9092 1.94752 26.0745 2.08295 26.2146C2.21837 26.3547 2.38006 26.4667 2.55879 26.5442C2.73751 26.6218 2.92976 26.6634 3.12456 26.6667H26.8746C27.0694 26.6634 27.2616 26.6218 27.4403 26.5442C27.6191 26.4667 27.7808 26.3547 27.9162 26.2146C28.0516 26.0745 28.1581 25.9092 28.2296 25.7279C28.3011 25.5467 28.3362 25.3531 28.3329 25.1583V6.50833C28.3362 6.31353 28.3011 6.11999 28.2296 5.93875C28.1581 5.75752 28.0516 5.59214 27.9162 5.45208C27.7808 5.31201 27.6191 5.19999 27.4403 5.12242C27.2616 5.04486 27.0694 5.00326 26.8746 5Z" fill="#7787A6"/>
<path d="M6.66699 11.6666H8.33366V13.3333H6.66699V11.6666Z" fill="#7787A6"/>
<path d="M11.667 11.6666H13.3337V13.3333H11.667V11.6666Z" fill="#7787A6"/>
<path d="M16.667 11.6666H18.3337V13.3333H16.667V11.6666Z" fill="#7787A6"/>
<path d="M21.667 11.6666H23.3337V13.3333H21.667V11.6666Z" fill="#7787A6"/>
<path d="M6.66699 15.8334H8.33366V17.5H6.66699V15.8334Z" fill="#7787A6"/>
<path d="M11.667 15.8334H13.3337V17.5H11.667V15.8334Z" fill="#7787A6"/>
<path d="M16.667 15.8334H18.3337V17.5H16.667V15.8334Z" fill="#7787A6"/>
<path d="M21.667 15.8334H23.3337V17.5H21.667V15.8334Z" fill="#7787A6"/>
<path d="M6.66699 20H8.33366V21.6667H6.66699V20Z" fill="#7787A6"/>
<path d="M11.667 20H13.3337V21.6667H11.667V20Z" fill="#7787A6"/>
<path d="M16.667 20H18.3337V21.6667H16.667V20Z" fill="#7787A6"/>
<path d="M21.667 20H23.3337V21.6667H21.667V20Z" fill="#7787A6"/>
<path d="M8.33333 8.33329C8.55435 8.33329 8.76631 8.24549 8.92259 8.08921C9.07887 7.93293 9.16667 7.72097 9.16667 7.49996V2.49996C9.16667 2.27895 9.07887 2.06698 8.92259 1.9107C8.76631 1.75442 8.55435 1.66663 8.33333 1.66663C8.11232 1.66663 7.90036 1.75442 7.74408 1.9107C7.5878 2.06698 7.5 2.27895 7.5 2.49996V7.49996C7.5 7.72097 7.5878 7.93293 7.74408 8.08921C7.90036 8.24549 8.11232 8.33329 8.33333 8.33329Z" fill="#7787A6"/>
<path d="M21.6663 8.33329C21.8874 8.33329 22.0993 8.24549 22.2556 8.08921C22.4119 7.93293 22.4997 7.72097 22.4997 7.49996V2.49996C22.4997 2.27895 22.4119 2.06698 22.2556 1.9107C22.0993 1.75442 21.8874 1.66663 21.6663 1.66663C21.4453 1.66663 21.2334 1.75442 21.0771 1.9107C20.9208 2.06698 20.833 2.27895 20.833 2.49996V7.49996C20.833 7.72097 20.9208 7.93293 21.0771 8.08921C21.2334 8.24549 21.4453 8.33329 21.6663 8.33329Z" fill="#7787A6"/>
<path d="M10.833 5H19.1663V6.66667H10.833V5Z" fill="#7787A6"/>
</g>
<defs>
<clipPath id="clip0_509_185">
<rect width="30" height="30" fill="white"/>
</clipPath>
</defs>
</svg>
