<svg width="50" height="50" viewBox="0 0 50 50" fill="none" xmlns="http://www.w3.org/2000/svg">
<rect x="0.5" y="0.5" width="49" height="49" rx="4.5" stroke="#082040"/>
<path d="M24.4966 21.3316C22.2014 21.3316 20.3283 23.2047 20.3283 25.5C20.3283 27.7953 22.2014 29.6684 24.4966 29.6684C26.7919 29.6684 28.665 27.7953 28.665 25.5C28.665 23.2047 26.7919 21.3316 24.4966 21.3316ZM36.9986 25.5C36.9986 23.7738 37.0142 22.0633 36.9173 20.3403C36.8204 18.3389 36.3638 16.5627 34.9004 15.0992C33.4338 13.6326 31.6607 13.1792 29.6594 13.0822C27.9333 12.9853 26.2228 13.0009 24.4998 13.0009C22.7736 13.0009 21.0631 12.9853 19.3401 13.0822C17.3388 13.1792 15.5626 13.6357 14.0992 15.0992C12.6326 16.5658 12.1792 18.3389 12.0822 20.3403C11.9853 22.0664 12.0009 23.777 12.0009 25.5C12.0009 27.223 11.9853 28.9367 12.0822 30.6597C12.1792 32.6611 12.6357 34.4373 14.0992 35.9008C15.5658 37.3674 17.3388 37.8208 19.3401 37.9178C21.0663 38.0147 22.7768 37.9991 24.4998 37.9991C26.2259 37.9991 27.9364 38.0147 29.6594 37.9178C31.6607 37.8208 33.4369 37.3643 34.9004 35.9008C36.3669 34.4342 36.8204 32.6611 36.9173 30.6597C37.0174 28.9367 36.9986 27.2262 36.9986 25.5ZM24.4966 31.9137C20.9474 31.9137 18.0831 29.0493 18.0831 25.5C18.0831 21.9507 20.9474 19.0863 24.4966 19.0863C28.0458 19.0863 30.9102 21.9507 30.9102 25.5C30.9102 29.0493 28.0458 31.9137 24.4966 31.9137ZM31.1729 20.3215C30.3442 20.3215 29.675 19.6523 29.675 18.8236C29.675 17.9949 30.3442 17.3257 31.1729 17.3257C32.0016 17.3257 32.6708 17.9949 32.6708 18.8236C32.671 19.0204 32.6324 19.2153 32.5572 19.3971C32.4821 19.579 32.3717 19.7442 32.2326 19.8833C32.0935 20.0225 31.9282 20.1328 31.7464 20.208C31.5646 20.2832 31.3697 20.3217 31.1729 20.3215Z" fill="#082040"/>
</svg>
