<svg width="30" height="30" viewBox="0 0 30 30" fill="none" xmlns="http://www.w3.org/2000/svg">
<path d="M20.625 0H9.375C8.5465 0.000992411 7.75222 0.330551 7.16639 0.916387C6.58055 1.50222 6.25099 2.2965 6.25 3.125V26.875C6.25099 27.7035 6.58055 28.4978 7.16639 29.0836C7.75222 29.6694 8.5465 29.999 9.375 30H20.625C21.4535 29.999 22.2478 29.6694 22.8336 29.0836C23.4194 28.4978 23.749 27.7035 23.75 26.875V3.125C23.749 2.2965 23.4194 1.50222 22.8336 0.916387C22.2478 0.330551 21.4535 0.000992411 20.625 0V0ZM7.5 3.125C7.5 2.62772 7.69754 2.15081 8.04917 1.79917C8.40081 1.44754 8.87772 1.25 9.375 1.25H20.625C21.1223 1.25 21.5992 1.44754 21.9508 1.79917C22.3025 2.15081 22.5 2.62772 22.5 3.125V10H7.5V3.125ZM22.5 26.875C22.5 27.3723 22.3025 27.8492 21.9508 28.2008C21.5992 28.5525 21.1223 28.75 20.625 28.75H9.375C8.87772 28.75 8.40081 28.5525 8.04917 28.2008C7.69754 27.8492 7.5 27.3723 7.5 26.875V11.25H22.5V26.875Z" fill="#CFDDF7"/>
<path d="M9.375 3.75C9.20924 3.75 9.05027 3.81585 8.93306 3.93306C8.81585 4.05027 8.75 4.20924 8.75 4.375V6.875C8.75 7.04076 8.81585 7.19973 8.93306 7.31694C9.05027 7.43415 9.20924 7.5 9.375 7.5C9.54076 7.5 9.69973 7.43415 9.81694 7.31694C9.93415 7.19973 10 7.04076 10 6.875V4.375C10 4.20924 9.93415 4.05027 9.81694 3.93306C9.69973 3.81585 9.54076 3.75 9.375 3.75Z" fill="#CFDDF7"/>
<path d="M9.375 20C9.54076 20 9.69973 19.9342 9.81694 19.8169C9.93415 19.6997 10 19.5408 10 19.375V15C10 14.8342 9.93415 14.6753 9.81694 14.5581C9.69973 14.4408 9.54076 14.375 9.375 14.375C9.20924 14.375 9.05027 14.4408 8.93306 14.5581C8.81585 14.6753 8.75 14.8342 8.75 15V19.375C8.75 19.5408 8.81585 19.6997 8.93306 19.8169C9.05027 19.9342 9.20924 20 9.375 20Z" fill="#CFDDF7"/>
</svg>
