<svg width="30" height="30" viewBox="0 0 30 30" fill="none" xmlns="http://www.w3.org/2000/svg">
<path d="M9.11935 22.1431H6.40792C5.65016 22.1431 4.92344 21.842 4.38762 21.3062C3.8518 20.7704 3.55078 20.0437 3.55078 19.2859L3.55078 13.5716C3.55078 12.8139 3.8518 12.0872 4.38762 11.5513C4.92344 11.0155 5.65016 10.7145 6.40792 10.7145L23.5708 10.7145C24.3285 10.7145 25.0553 11.0155 25.5911 11.5513C26.1269 12.0872 26.4279 12.8139 26.4279 13.5716V19.2859C26.4279 20.0437 26.1269 20.7704 25.5911 21.3062C25.0553 21.842 24.3285 22.1431 23.5708 22.1431H20.7136" stroke="#082040" stroke-linecap="round" stroke-linejoin="round"/>
<path d="M9.28516 7.85728V5.00014C9.28516 4.62126 9.43567 4.25789 9.70358 3.98999C9.97148 3.72208 10.3348 3.57157 10.7137 3.57157H19.2852C19.664 3.57157 20.0274 3.72208 20.2953 3.98999C20.5632 4.25789 20.7137 4.62126 20.7137 5.00014V7.85728M9.28516 25.0001V17.8559H20.7137V25.0001C20.7137 25.379 20.5632 25.7424 20.2953 26.0103C20.0274 26.2782 19.664 26.4287 19.2852 26.4287H10.7137C10.3348 26.4287 9.97148 26.2782 9.70358 26.0103C9.43567 25.7424 9.28516 25.379 9.28516 25.0001V25.0001Z" stroke="#082040" stroke-linecap="round" stroke-linejoin="round"/>
<circle cx="0.5" cy="0.5" r="0.5" transform="matrix(-1 0 0 1 23 13)" fill="#082040"/>
</svg>
