<svg width="22" height="13" viewBox="0 0 22 13" fill="none" xmlns="http://www.w3.org/2000/svg">
<path d="M20.3712 0.986222L11 10.1212L1.62874 0.986222C1.46131 0.82268 1.23654 0.731123 1.00249 0.731123C0.768439 0.731123 0.543674 0.82268 0.37624 0.986222C0.295169 1.06566 0.230763 1.16047 0.186794 1.2651C0.142826 1.36974 0.120178 1.4821 0.120178 1.5956C0.120178 1.7091 0.142826 1.82145 0.186794 1.92609C0.230763 2.03073 0.295169 2.12554 0.37624 2.20497L10.3456 11.925C10.5207 12.0956 10.7555 12.1911 11 12.1911C11.2445 12.1911 11.4793 12.0956 11.6544 11.925L21.6237 2.20685C21.7054 2.12735 21.7703 2.03231 21.8146 1.92733C21.8589 1.82234 21.8817 1.70955 21.8817 1.5956C21.8817 1.48165 21.8589 1.36885 21.8146 1.26387C21.7703 1.15888 21.7054 1.06384 21.6237 0.984347C21.4563 0.820805 21.2315 0.729248 20.9975 0.729248C20.7634 0.729248 20.5387 0.820805 20.3712 0.984347V0.986222Z" fill="#082040"/>
</svg>
