<svg width="9" height="16" viewBox="0 0 9 16" fill="none" xmlns="http://www.w3.org/2000/svg">
<path d="M0.657522 1.75253L6.74752 8.00003L0.657522 14.2475C0.548494 14.3591 0.487456 14.509 0.487456 14.665C0.487456 14.8211 0.548494 14.9709 0.657522 15.0825C0.710478 15.1366 0.773685 15.1795 0.843442 15.2088C0.9132 15.2381 0.988106 15.2532 1.06377 15.2532C1.13944 15.2532 1.21434 15.2381 1.2841 15.2088C1.35386 15.1795 1.41707 15.1366 1.47002 15.0825L7.95002 8.43628C8.06379 8.31956 8.12746 8.16302 8.12746 8.00003C8.12746 7.83704 8.06379 7.68049 7.95002 7.56378L1.47127 0.917526C1.41828 0.863097 1.35491 0.819836 1.28493 0.790297C1.21494 0.760757 1.13974 0.74554 1.06377 0.74554C0.987805 0.74554 0.912607 0.760757 0.842618 0.790297C0.772629 0.819836 0.709267 0.863097 0.656272 0.917526C0.547244 1.02915 0.486206 1.17899 0.486206 1.33503C0.486206 1.49106 0.547244 1.6409 0.656272 1.75253H0.657522Z" fill="#082040"/>
</svg>
