<svg width="23" height="23" viewBox="0 0 23 23" fill="none" xmlns="http://www.w3.org/2000/svg">
<path d="M9.49995 0.4375C11.2126 0.437287 12.8902 0.922363 14.3384 1.83652C15.7867 2.75068 16.9462 4.05649 17.6827 5.60265C18.4193 7.14881 18.7026 8.87202 18.4999 10.5726C18.2972 12.2732 17.6168 13.8815 16.5375 15.2113L22.6625 21.3363C22.8306 21.5033 22.9293 21.7279 22.9385 21.9648C22.9478 22.2016 22.8669 22.4332 22.7123 22.6129C22.5577 22.7926 22.3407 22.907 22.1051 22.9331C21.8695 22.9593 21.6327 22.8952 21.4425 22.7537L21.3375 22.6625L15.2112 16.5375C14.0848 17.4514 12.7555 18.0816 11.335 18.3751C9.91448 18.6685 8.44427 18.6168 7.04792 18.2241C5.65158 17.8314 4.36989 17.1093 3.31057 16.1184C2.25125 15.1275 1.44526 13.8969 0.960317 12.5298C0.475376 11.1628 0.32566 9.69928 0.523752 8.26236C0.721844 6.82544 1.26196 5.45706 2.0987 4.27222C2.93544 3.08738 4.04436 2.12069 5.33227 1.45341C6.62018 0.786117 8.04944 0.437723 9.49995 0.4375ZM9.49995 2.3125C8.55608 2.3125 7.62144 2.49841 6.74942 2.85962C5.87739 3.22082 5.08505 3.75025 4.41762 4.41767C3.7502 5.08509 3.22078 5.87743 2.85957 6.74946C2.49836 7.62149 2.31245 8.55612 2.31245 9.5C2.31245 10.4439 2.49836 11.3785 2.85957 12.2505C3.22078 13.1226 3.7502 13.9149 4.41762 14.5823C5.08505 15.2498 5.87739 15.7792 6.74942 16.1404C7.62144 16.5016 8.55608 16.6875 9.49995 16.6875C11.4062 16.6875 13.2344 15.9302 14.5823 14.5823C15.9302 13.2344 16.6875 11.4062 16.6875 9.5C16.6875 7.59376 15.9302 5.76559 14.5823 4.41767C13.2344 3.06975 11.4062 2.3125 9.49995 2.3125Z" fill="#082040"/>
</svg>
