<svg width="364" height="32" viewBox="0 0 364 32" fill="none" xmlns="http://www.w3.org/2000/svg">
<g clip-path="url(#clip0_101_142)">
<path d="M69.3037 13.2444H74.0562V32.0001H69.3037V13.2444Z" fill="#0F2859"/>
<path d="M84.9664 17.5595C84.3589 17.5638 83.7622 17.7254 83.2307 18.0294C82.7001 18.2873 82.2336 18.6673 81.8669 19.1402C81.4568 19.5845 81.1339 20.1068 80.9164 20.6783C80.6839 21.2602 80.5713 21.8859 80.5858 22.5154C80.5858 23.1616 80.7123 23.801 80.9578 24.3952C81.1695 24.9824 81.4926 25.5199 81.9082 25.976C82.334 26.4266 82.8389 26.7891 83.396 27.0441C83.9454 27.3352 84.5557 27.4819 85.173 27.4713H102.323V24.3098H84.8837V20.0374H107.117V31.7864H84.3878C83.2263 31.7481 82.0857 31.4569 81.0404 30.932C80.0156 30.4116 79.0912 29.7021 78.3129 28.8385C77.5225 27.9587 76.9049 26.9285 76.4945 25.8051C76.0363 24.6976 75.7974 23.5064 75.792 22.3018C75.8414 19.9287 76.6889 17.6476 78.1889 15.8505C78.9396 14.9917 79.836 14.2822 80.8338 13.7571C81.8099 13.1937 82.8992 12.872 84.0159 12.8171H103.439L107.117 17.0895H84.9664V17.5595Z" fill="#0F2859"/>
<path d="M110.01 13.2444H114.763V32.0001H110.01V13.2444Z" fill="#0F2859"/>
<path d="M145.509 17.175H134.847V31.9146H130.053V17.175H116.126L119.432 13.1589H148.774L145.509 17.175Z" fill="#0F2859"/>
<path d="M166.999 28.6249H147.699L144.6 32.0001H138.318L154.849 13.2017H159.891L176.421 32.0001H170.057L166.999 28.6249ZM151.377 24.3525H163.279L157.328 18.0294L151.377 24.3525Z" fill="#0F2859"/>
<path d="M202.787 27.5141L206.465 31.7864H177.248V13.2444H182.041V27.5141H202.787Z" fill="#0F2859"/>
<path d="M231.509 20.3365C232.273 20.3603 233.028 20.5192 233.74 20.8065C234.405 21.0567 235.01 21.4499 235.517 21.96C236.034 22.4735 236.455 23.082 236.757 23.7544C237.058 24.4686 237.213 25.2396 237.212 26.0187C237.214 26.8026 237.045 27.5769 236.716 28.2831C236.384 28.9721 235.936 29.5943 235.393 30.1202C234.829 30.6488 234.188 31.0814 233.492 31.4019C232.79 31.7401 232.034 31.9428 231.261 32.0001H209.482L205.845 27.7277H231.095C231.448 27.7316 231.789 27.5937 232.046 27.3432C232.165 27.2195 232.259 27.0728 232.322 26.9115C232.386 26.7503 232.419 26.5775 232.418 26.4033C232.424 26.2283 232.393 26.0541 232.329 25.8921C232.265 25.7301 232.169 25.584 232.046 25.4633C231.787 25.2429 231.47 25.1088 231.137 25.0788H211.259C210.532 25.0407 209.818 24.867 209.151 24.5661C208.177 24.1426 207.346 23.429 206.765 22.5161C206.183 21.6032 205.878 20.5322 205.886 19.4393C205.875 18.6635 206.016 17.8933 206.3 17.175C206.572 16.4808 206.964 15.8437 207.457 15.2951C207.943 14.7477 208.534 14.3112 209.193 14.0134C209.856 13.6543 210.593 13.4639 211.341 13.458H231.798L235.435 17.9867H211.837C211.668 17.9808 211.5 18.012 211.343 18.0782C211.186 18.1445 211.045 18.2444 210.928 18.3712C210.803 18.4901 210.705 18.6359 210.641 18.7983C210.577 18.9608 210.548 19.1359 210.556 19.3111C210.548 19.4801 210.577 19.6487 210.642 19.8042C210.706 19.9597 210.804 20.0979 210.928 20.2083C211.2 20.427 211.534 20.5471 211.879 20.5501L231.509 20.3365Z" fill="#0F2859"/>
<path d="M265.685 17.175H254.94V31.9146H250.229V17.175H236.344L239.609 13.1589H268.95L265.685 17.175Z" fill="#0F2859"/>
<path d="M292.134 13.2444C293.261 13.3144 294.361 13.635 295.357 14.1843C296.364 14.6767 297.263 15.3743 298.002 16.235C299.519 18.0014 300.357 20.2814 300.358 22.6436C300.367 23.8453 300.142 25.0367 299.697 26.1469C299.269 27.2358 298.653 28.2348 297.878 29.0948C297.111 29.9708 296.184 30.6821 295.151 31.1883C294.102 31.6985 292.962 31.975 291.803 32.0001H275.604C274.459 31.9691 273.333 31.6927 272.297 31.1883C271.243 30.6983 270.3 29.9852 269.529 29.0948C268.768 28.2241 268.153 27.2276 267.71 26.1469C267.265 25.0367 267.04 23.8453 267.049 22.6436C267.043 21.46 267.253 20.2859 267.669 19.183C268.097 18.1041 268.698 17.1075 269.446 16.235C270.181 15.3877 271.064 14.6918 272.05 14.1843C273.046 13.635 274.146 13.3144 275.273 13.2444H292.134ZM290.77 27.3004C291.383 27.31 291.99 27.1787 292.547 26.9159C293.091 26.6976 293.584 26.3627 293.994 25.9333C294.406 25.5149 294.742 25.0227 294.986 24.4807C295.231 23.9015 295.358 23.2759 295.357 22.6436C295.361 22.0246 295.234 21.4124 294.986 20.8492C294.771 20.3114 294.463 19.819 294.076 19.3966C293.672 18.97 293.196 18.6226 292.671 18.3712C292.139 18.1206 291.562 17.9895 290.977 17.9867H276.637C276.038 17.9834 275.446 18.1146 274.901 18.3712C274.383 18.6125 273.919 18.9615 273.537 19.3966C273.137 19.8167 272.815 20.3091 272.587 20.8492C272.353 21.4157 272.24 22.0278 272.256 22.6436C272.262 23.2712 272.374 23.8929 272.587 24.4807C272.83 25.0227 273.166 25.5149 273.579 25.9333C273.988 26.3627 274.481 26.6976 275.025 26.9159C275.598 27.1744 276.218 27.3054 276.843 27.3004H290.77Z" fill="#0F2859"/>
<path d="M306.97 32.0001H302.176V13.2444H325.402C327.184 13.2971 328.882 14.045 330.154 15.3378C330.753 15.9968 331.23 16.7644 331.559 17.6022C331.923 18.4642 332.106 19.3961 332.096 20.3365C332.097 21.1076 331.971 21.8732 331.724 22.6009C331.517 23.3067 331.196 23.9712 330.774 24.5661C330.352 25.1375 329.851 25.6414 329.286 26.0615C328.732 26.5181 328.102 26.8656 327.426 27.0868L332.096 32.0001H325.443L321.31 27.4713H306.97V32.0001ZM306.97 22.9426H325.195C325.863 22.9426 326.505 22.6681 326.977 22.1793C327.45 21.6906 327.716 21.0277 327.716 20.3365C327.778 20.0121 327.778 19.6782 327.716 19.3538C327.602 19.0305 327.418 18.7383 327.179 18.4994C326.951 18.2667 326.685 18.0785 326.393 17.944C326.052 17.8799 325.702 17.8799 325.36 17.944H306.97V22.9426Z" fill="#0F2859"/>
<path d="M338.915 17.175V20.2938H359.578V24.5661H338.915V28.0695H364.041V32.1282H334.121V13.2444H360.363L364.041 17.2604L338.915 17.175Z" fill="#0F2859"/>
<path d="M62.8568 9.78362C62.1645 7.98408 61.1556 6.33272 59.8814 4.91312C58.6579 3.41942 57.1535 2.19843 55.4595 1.32434C53.7343 0.464395 51.8365 0.0397724 49.9218 0.0853485H18.6379V7.7756H48.3101C49.33 7.8125 50.3305 8.07472 51.2442 8.54463C52.1431 8.9641 52.946 9.57566 53.5998 10.339C54.9573 11.9055 55.7334 13.9189 55.7901 16.0213C55.8322 17.1251 55.6197 18.2234 55.1702 19.2255C54.7887 20.2202 54.2118 21.1221 53.4758 21.8744C52.769 22.6516 51.9094 23.2634 50.9549 23.6688C49.9982 24.1314 48.9529 24.3651 47.8968 24.3524H18.6379V32.0854H49.3432C51.2954 32.0209 53.2152 31.5529 54.9897 30.7091C56.7641 29.8652 58.3571 28.6626 59.6747 27.1721C62.3548 24.1216 63.8296 20.1422 63.8073 16.0213C63.9136 13.8963 63.5899 11.7718 62.8568 9.78362Z" fill="#80F2E7"/>
<path d="M23.184 10.8945H41.2848L36.4497 14.1415H17.8943L23.184 10.8945Z" fill="#80F2E7"/>
<path d="M7.56267 15.7651H33.5981L26.6553 20.4647H0L7.56267 15.7651Z" fill="#80F2E7"/>
</g>
<defs>
<clipPath id="clip0_101_142">
<rect width="364" height="32" fill="white"/>
</clipPath>
</defs>
</svg>
