<svg width="30" height="30" viewBox="0 0 30 30" fill="none" xmlns="http://www.w3.org/2000/svg">
<path d="M27.9688 21.6594H27.3031V7.25C27.3019 6.65283 27.0638 6.08055 26.6411 5.65872C26.2184 5.2369 25.6456 5 25.0484 5H4.63906C4.04189 5 3.46911 5.2369 3.04641 5.65872C2.62371 6.08055 2.38562 6.65283 2.38438 7.25V21.6594H1.71875C1.59443 21.6594 1.4752 21.7088 1.38729 21.7967C1.29939 21.8846 1.25 22.0038 1.25 22.1281C1.25124 22.7891 1.51437 23.4227 1.98177 23.8901C2.44917 24.3575 3.08275 24.6206 3.74375 24.6219H25.9438C26.6048 24.6206 27.2383 24.3575 27.7057 23.8901C28.1731 23.4227 28.4363 22.7891 28.4375 22.1281C28.4375 22.0038 28.3881 21.8846 28.3002 21.7967C28.2123 21.7088 28.0931 21.6594 27.9688 21.6594ZM3.32188 7.25C3.32312 6.90147 3.46244 6.56764 3.70932 6.32164C3.95621 6.07563 4.29053 5.9375 4.63906 5.9375H25.0484C25.397 5.9375 25.7313 6.07563 25.9782 6.32164C26.2251 6.56764 26.3644 6.90147 26.3656 7.25V21.6594H3.32188V7.25ZM25.9438 23.6844H3.74375C3.41294 23.6833 3.09096 23.5775 2.824 23.3822C2.55705 23.1868 2.35884 22.9119 2.25781 22.5969H27.4297C27.3287 22.9119 27.1305 23.1868 26.8635 23.3822C26.5965 23.5775 26.2746 23.6833 25.9438 23.6844Z" fill="#CFDDF7"/>
</svg>
