<svg width="30" height="30" viewBox="0 0 30 30" fill="none" xmlns="http://www.w3.org/2000/svg">
<path d="M25.9033 4.80737H4.07109C2.33414 4.80938 0.926689 6.21683 0.924683 7.95378V13.7329C0.926689 15.47 2.33414 16.8773 4.07109 16.8793H25.9033C27.6402 16.8773 29.0477 15.47 29.0497 13.7329V7.95378C29.0477 6.21683 27.6402 4.80938 25.9033 4.80737ZM27.8939 13.7329C27.8927 14.8319 27.0021 15.7223 25.9033 15.7235H4.07109C2.97225 15.7223 2.08171 14.8319 2.0805 13.7329V7.95378C2.08171 6.85494 2.97225 5.9646 4.07109 5.96319H25.9033C27.0021 5.9646 27.8927 6.85494 27.8939 7.95378V13.7329Z" fill="#CFDDF7"/>
<path d="M25.7748 9.94434H4.19949C3.88044 9.94434 3.62158 10.2032 3.62158 10.5222C3.62158 10.8413 3.88044 11.1002 4.19949 11.1002H25.7748C26.0939 11.1002 26.3527 10.8413 26.3527 10.5222C26.3527 10.2032 26.0939 9.94434 25.7748 9.94434Z" fill="#CFDDF7"/>
<path d="M25.7748 7.43994H4.19949C3.88044 7.43994 3.62158 7.6988 3.62158 8.01785C3.62158 8.33691 3.88044 8.59576 4.19949 8.59576H25.7748C26.0939 8.59576 26.3527 8.33691 26.3527 8.01785C26.3527 7.6988 26.0939 7.43994 25.7748 7.43994Z" fill="#CFDDF7"/>
<path d="M20.6379 11.8706C19.7869 11.8706 19.0968 12.5607 19.0968 13.4117C19.0968 14.2629 19.7869 14.9528 20.6379 14.9528C21.4889 14.9528 22.179 14.2629 22.179 13.4117C22.178 12.5609 21.4887 11.8716 20.6379 11.8706ZM20.6379 13.797C20.4252 13.797 20.2526 13.6244 20.2526 13.4117C20.2526 13.199 20.4252 13.0264 20.6379 13.0264C20.8506 13.0264 21.0232 13.199 21.0232 13.4117C21.023 13.6244 20.8506 13.7968 20.6379 13.797Z" fill="#CFDDF7"/>
<path d="M24.8116 11.8706C23.9606 11.8706 23.2705 12.5607 23.2705 13.4117C23.2705 14.2629 23.9606 14.9528 24.8116 14.9528C25.6626 14.9528 26.3527 14.2629 26.3527 13.4117C26.3517 12.5609 25.6624 11.8716 24.8116 11.8706ZM24.8116 13.797C24.5989 13.797 24.4263 13.6244 24.4263 13.4117C24.4263 13.199 24.5989 13.0264 24.8116 13.0264C25.0243 13.0264 25.1969 13.199 25.1969 13.4117C25.1967 13.6244 25.0243 13.7968 24.8116 13.797Z" fill="#CFDDF7"/>
<path d="M15.8862 24.0069V18.8699C15.8862 18.5508 15.6273 18.292 15.3083 18.292C14.9892 18.292 14.7303 18.5508 14.7303 18.8699V24.0069C14.7303 24.3259 14.9892 24.5848 15.3083 24.5848C15.6273 24.5848 15.8862 24.3259 15.8862 24.0069Z" fill="#CFDDF7"/>
<path d="M20.0599 22.0805V18.8699C20.0599 18.5508 19.801 18.292 19.482 18.292C19.1629 18.292 18.9041 18.5508 18.9041 18.8699V22.0805C18.9041 22.3996 19.1629 22.6584 19.482 22.6584C19.801 22.6584 20.0599 22.3996 20.0599 22.0805Z" fill="#CFDDF7"/>
<path d="M24.2337 20.7963V18.8699C24.2337 18.5508 23.9748 18.292 23.6558 18.292C23.3367 18.292 23.0779 18.5508 23.0779 18.8699V20.7963C23.0779 21.1153 23.3367 21.3742 23.6558 21.3742C23.9748 21.3742 24.2337 21.1153 24.2337 20.7963Z" fill="#CFDDF7"/>
<path d="M11.1344 22.6584C11.4535 22.6584 11.7123 22.3996 11.7123 22.0805V18.8699C11.7123 18.5508 11.4535 18.292 11.1344 18.292C10.8154 18.292 10.5565 18.5508 10.5565 18.8699V22.0805C10.5565 22.3996 10.8154 22.6584 11.1344 22.6584Z" fill="#CFDDF7"/>
<path d="M7.53851 20.7963V18.8699C7.53851 18.5508 7.27966 18.292 6.9606 18.292C6.64155 18.292 6.38269 18.5508 6.38269 18.8699V20.7963C6.38269 21.1153 6.64155 21.3742 6.9606 21.3742C7.27966 21.3742 7.53851 21.1153 7.53851 20.7963Z" fill="#CFDDF7"/>
</svg>
