<svg width="13" height="22" viewBox="0 0 13 22" fill="none" xmlns="http://www.w3.org/2000/svg">
<path d="M0.986222 1.62882L10.1212 11.0001L0.986222 20.3713C0.82268 20.5388 0.731123 20.7635 0.731123 20.9976C0.731123 21.2316 0.82268 21.4564 0.986222 21.6238C1.06566 21.7049 1.16047 21.7693 1.2651 21.8133C1.36974 21.8572 1.4821 21.8799 1.5956 21.8799C1.7091 21.8799 1.82145 21.8572 1.92609 21.8133C2.03073 21.7693 2.12554 21.7049 2.20497 21.6238L11.925 11.6544C12.0956 11.4794 12.1911 11.2446 12.1911 11.0001C12.1911 10.7556 12.0956 10.5208 11.925 10.3457L2.20685 0.37632C2.12735 0.294676 2.03231 0.229784 1.92733 0.185474C1.82234 0.141167 1.70955 0.11834 1.5956 0.11834C1.48165 0.11834 1.36885 0.141167 1.26387 0.185474C1.15888 0.229784 1.06384 0.294676 0.984347 0.37632C0.820805 0.543753 0.729248 0.76852 0.729248 1.00257C0.729248 1.23662 0.820805 1.46139 0.984347 1.62882H0.986222Z" fill="#082040"/>
</svg>
