<svg width="50" height="50" viewBox="0 0 50 50" fill="none" xmlns="http://www.w3.org/2000/svg">
<rect x="0.5" y="0.5" width="49" height="49" rx="4.5" stroke="#082040"/>
<path d="M16.1918 20.8228C17.0585 19.097 18.3881 17.6463 20.0319 16.6327C21.6757 15.6191 23.569 15.0826 25.5002 15.0833C28.3075 15.0833 30.6658 16.1155 32.4689 17.7968L29.4825 20.7843C28.4022 19.752 27.0293 19.226 25.5002 19.226C22.7866 19.226 20.4897 21.0593 19.672 23.5208C19.4637 24.1458 19.345 24.8124 19.345 25.4999C19.345 26.1874 19.4637 26.8541 19.672 27.4791C20.4908 29.9416 22.7866 31.7739 25.5002 31.7739C26.9012 31.7739 28.0939 31.4041 29.0272 30.7791C29.5683 30.4228 30.0316 29.9606 30.3889 29.4202C30.7463 28.8799 30.9904 28.2727 31.1064 27.6353H25.5002V23.6062H35.3106C35.4335 24.2874 35.5002 24.9978 35.5002 25.7364C35.5002 28.9093 34.3647 31.5801 32.3939 33.3926C30.671 34.9843 28.3127 35.9166 25.5002 35.9166C24.1321 35.9171 22.7773 35.6481 21.5132 35.1248C20.2492 34.6015 19.1006 33.8342 18.1332 32.8668C17.1659 31.8995 16.3986 30.7509 15.8753 29.4869C15.352 28.2228 15.0829 26.868 15.0835 25.4999C15.0835 23.8187 15.4856 22.2291 16.1918 20.8228Z" fill="#082040"/>
</svg>
