<svg width="30" height="30" viewBox="0 0 30 30" fill="none" xmlns="http://www.w3.org/2000/svg">
<path d="M22.5 6.2625L22.5125 6.24875M26.25 5V25C26.25 25.663 25.9866 26.2989 25.5178 26.7678C25.0489 27.2366 24.413 27.5 23.75 27.5H6.25C5.58696 27.5 4.95107 27.2366 4.48223 26.7678C4.01339 26.2989 3.75 25.663 3.75 25V5C3.75 4.33696 4.01339 3.70107 4.48223 3.23223C4.95107 2.76339 5.58696 2.5 6.25 2.5H23.75C24.413 2.5 25.0489 2.76339 25.5178 3.23223C25.9866 3.70107 26.25 4.33696 26.25 5Z" stroke="#CFDDF6" stroke-linecap="round" stroke-linejoin="round"/>
<path d="M15 23.75C16.9891 23.75 18.8968 22.9598 20.3033 21.5533C21.7098 20.1468 22.5 18.2391 22.5 16.25C22.5 14.2609 21.7098 12.3532 20.3033 10.9467C18.8968 9.54018 16.9891 8.75 15 8.75C13.0109 8.75 11.1032 9.54018 9.6967 10.9467C8.29018 12.3532 7.5 14.2609 7.5 16.25C7.5 18.2391 8.29018 20.1468 9.6967 21.5533C11.1032 22.9598 13.0109 23.75 15 23.75V23.75Z" stroke="#CFDDF6" stroke-linecap="round" stroke-linejoin="round"/>
<path d="M15 20C14.0054 20 13.0516 19.6049 12.3483 18.9017C11.6451 18.1984 11.25 17.2446 11.25 16.25" stroke="#CFDDF6" stroke-linecap="round" stroke-linejoin="round"/>
</svg>
