<svg width="24" height="24" viewBox="0 0 24 24" fill="none" xmlns="http://www.w3.org/2000/svg">
<path d="M6.11935 19.1431H3.40792C2.65016 19.1431 1.92344 18.842 1.38762 18.3062C0.851801 17.7704 0.550781 17.0437 0.550781 16.2859L0.550781 10.5716C0.550781 9.81388 0.851801 9.08715 1.38762 8.55133C1.92344 8.01551 2.65016 7.71449 3.40792 7.71449L20.5708 7.71449C21.3285 7.71449 22.0553 8.01551 22.5911 8.55133C23.1269 9.08715 23.4279 9.81388 23.4279 10.5716V16.2859C23.4279 17.0437 23.1269 17.7704 22.5911 18.3062C22.0553 18.842 21.3285 19.1431 20.5708 19.1431H17.7136" stroke="#CFDDF6" stroke-linecap="round" stroke-linejoin="round"/>
<path d="M6.28516 4.85728V2.00014C6.28516 1.62126 6.43567 1.25789 6.70358 0.989985C6.97148 0.722075 7.33485 0.571568 7.71373 0.571568H16.2852C16.664 0.571568 17.0274 0.722075 17.2953 0.989985C17.5632 1.25789 17.7137 1.62126 17.7137 2.00014V4.85728M6.28516 22.0001L6.28516 14.8559H17.7137V22.0001C17.7137 22.379 17.5632 22.7424 17.2953 23.0103C17.0274 23.2782 16.664 23.4287 16.2852 23.4287H7.71373C7.33485 23.4287 6.97148 23.2782 6.70358 23.0103C6.43567 22.7424 6.28516 22.379 6.28516 22.0001Z" stroke="#CFDDF6" stroke-linecap="round" stroke-linejoin="round"/>
<circle cx="0.5" cy="0.5" r="0.5" transform="matrix(-1 0 0 1 20 10)" fill="#CFDDF6"/>
</svg>
