<svg width="9" height="16" viewBox="0 0 9 16" fill="none" xmlns="http://www.w3.org/2000/svg">
<path d="M8.34251 14.2475L2.25251 7.99997L8.34251 1.75247C8.45154 1.64085 8.51257 1.49101 8.51257 1.33497C8.51257 1.17894 8.45154 1.0291 8.34251 0.917473C8.28955 0.863426 8.22635 0.820488 8.15659 0.791176C8.08683 0.761863 8.01192 0.746765 7.93626 0.746765C7.86059 0.746765 7.78569 0.761863 7.71593 0.791176C7.64617 0.820488 7.58296 0.863426 7.53001 0.917473L1.05001 7.56372C0.936241 7.68044 0.872569 7.83698 0.872569 7.99997C0.872569 8.16296 0.936241 8.31951 1.05001 8.43622L7.52876 15.0825C7.58175 15.1369 7.64512 15.1802 7.7151 15.2097C7.78509 15.2392 7.86029 15.2545 7.93626 15.2545C8.01223 15.2545 8.08742 15.2392 8.15741 15.2097C8.2274 15.1802 8.29076 15.1369 8.34376 15.0825C8.45279 14.9709 8.51382 14.821 8.51382 14.665C8.51382 14.5089 8.45279 14.3591 8.34376 14.2475H8.34251Z" fill="#082040"/>
</svg>
