<svg width="30" height="30" viewBox="0 0 30 30" fill="none" xmlns="http://www.w3.org/2000/svg">
<path d="M26.7188 3.81567H3.28125C2.75327 3.81691 2.24727 4.0272 1.87393 4.40054C1.50059 4.7739 1.2903 5.27987 1.28906 5.80787V21.7454C1.28906 22.2737 1.49895 22.7805 1.87256 23.1541C2.24617 23.5276 2.75289 23.7376 3.28125 23.7376H6.62344L3.70781 25.0641C3.58529 25.1192 3.48541 25.2148 3.42493 25.3347C3.36445 25.4547 3.34703 25.5918 3.3756 25.7231C3.40416 25.8543 3.47696 25.9718 3.58182 26.0558C3.68668 26.1398 3.81721 26.1852 3.95156 26.1844H26.0484C26.1828 26.1852 26.3133 26.1398 26.4182 26.0558C26.523 25.9718 26.5958 25.8543 26.6244 25.7231C26.653 25.5918 26.6355 25.4547 26.5751 25.3347C26.5146 25.2148 26.4147 25.1192 26.2922 25.0641L23.3766 23.7376H26.7188C27.2471 23.7376 27.7538 23.5276 28.1274 23.1541C28.501 22.7805 28.7109 22.2737 28.7109 21.7454V5.80787C28.7097 5.27987 28.4994 4.7739 28.1261 4.40054C27.7527 4.0272 27.2467 3.81691 26.7188 3.81567ZM23.3438 25.0126H6.65625L9.46875 23.7376H20.5406L23.3438 25.0126ZM27.5625 21.7313C27.5645 21.8422 27.5439 21.9524 27.502 22.0551C27.4602 22.1578 27.398 22.251 27.3191 22.329C27.2402 22.407 27.1464 22.4682 27.0432 22.5089C26.94 22.5495 26.8296 22.5689 26.7188 22.5657H3.28125C3.06369 22.5657 2.85504 22.4792 2.7012 22.3254C2.54736 22.1716 2.46094 21.9629 2.46094 21.7454V5.80787C2.46217 5.59069 2.54899 5.38276 2.70256 5.22919C2.85614 5.07559 3.06407 4.98877 3.28125 4.98755H26.7188C26.9359 4.98877 27.1439 5.07559 27.2974 5.22919C27.451 5.38276 27.5378 5.59069 27.5391 5.80787L27.5625 21.7313Z" fill="#CFDDF7"/>
</svg>
